<svg xmlns="http://www.w3.org/2000/svg" version="1.1" xmlns:xlink="http://www.w3.org/1999/xlink" xmlns:svgjs="http://svgjs.dev/svgjs" viewBox="0 0 9.120730078124998 9.376812803148919"><g transform="matrix(0.8571428571428572,0,0,0.8571428571428572,1.3029614397321425,7.073274025915067)"><rect width="10.896934482836418" height="10.896934482836418" x="-1.6481630421994602" y="-8.230812803148918" fill="#000000"></rect><g clip-path="url(#SvgjsClipPath59490)"><g clip-path="url(#SvgjsClipPath59485ffa56788-8fa9-4f3c-a819-9c9c9872862c)"><path d=" M 6.484166669196955 -1.4419852555498016 L 3.608560313894815 -0.7473170536151716 C 3.378293138320707 -0.6915835971067894 3.0597591010036576 -0.6287834583138503 2.7924251768426336 -0.640650151206783 C 2.55242464642376 -0.6522501768436966 2.3506908672438955 -0.7221169979211908 2.2553573232163986 -0.8894507010743489 L 1.3182885855587068 -0.3477161704677467 C 1.2020216619335633 -0.2826493599986293 1.0834880666322415 -0.24771594945988262 0.9765544969678324 -0.25011595476406967 C 0.8716749244286266 -0.2482426105930049 0.7695303848426599 -0.2836294099222769 0.6882871932091627 -0.34998284214392417 C 0.6085536836588922 -0.4153163198690635 0.5528202271505092 -0.507849857708341 0.5249534988963179 -0.6265167866376729 C 0.4970867706421263 -0.756650407575906 0.5040201192986717 -0.9217174390528875 0.5621535811112434 -1.1170512040882485 L 1.3968220924568824 -3.955990811687504 C 1.464288908230188 -4.1838579819574235 1.5689558062184192 -4.490791993637561 1.7130894580977538 -4.713992486927115 C 1.8432230790359874 -4.916259600619021 2.003756767160612 -5.058126580822178 2.1966905268917847 -5.055726575517989 L 2.1966905268917847 -6.139328970359204 L 2.1966905268917847 -6.139328970359204 C 2.1966905268917847 -6.271729262973617 2.226957260450165 -6.390396191902949 2.2826907169585477 -6.483329730626258 C 2.338557507094941 -6.5786632746537546 2.417624348505159 -6.648396762103238 2.5152245642088342 -6.683330172641985 L 2.5152245642088342 -6.683330172641985 C 2.6085581038161743 -6.7182635831807325 2.7174916779007403 -6.720530254856911 2.8337586015258838 -6.685596844318163 C 2.961625550787939 -6.645596755915018 3.1010925256869077 -6.557729895056108 3.240692834213885 -6.408929566196407 L 5.282030679054418 -4.265191495043821 C 5.44483103885522 -4.093191114910295 5.658698178184039 -3.849057242023096 5.7796317787895495 -3.611856717792442 C 5.891232025434326 -3.3985229129756656 5.933098784629618 -3.188655782487161 5.832965229993744 -3.02358875101018 L 6.772433972955625 -2.481987554031588 C 6.888700896580769 -2.414654071886293 6.9747010866475305 -2.32852054819152 7.028167871479735 -2.233187004164022 C 7.081514975361231 -2.1429140745336035 7.102050254049681 -2.036987831941123 7.0863013332923055 -1.9333196747684411 C 7.06776795899885 -1.8355861254367545 7.016567845842822 -1.740385915037268 6.928300984099881 -1.6566523966466828 C 6.828300763092018 -1.565985529599554 6.681767105908493 -1.4891853598655134 6.484166669196953 -1.442651923689854 Z M 1.1552215585018828 -0.63118346361804 L 2.1968238605197947 -1.2333181277133924 L 2.1968238605197947 -4.716259158603293 C 2.122423696089944 -4.707059138270569 2.05269020864046 -4.634925645516896 1.9898900698475215 -4.537325429813221 C 1.866689797565833 -4.346658341758227 1.7736229252145141 -4.070657731776522 1.7108227864215755 -3.863057272964196 L 0.8761542750759364 -1.0241176653649395 C 0.834287515880644 -0.8845173568379607 0.8273541672240987 -0.7753171154973737 0.8458875415175564 -0.6985169457633349 C 0.8516462676711822 -0.661851340456133 0.8697011487137758 -0.6282335280981801 0.8970876546735828 -0.6031834017358371 C 0.9198265619663037 -0.5841679845247292 0.948798745680429 -0.5742414494489045 0.9784211677599788 -0.5753166734816473 C 1.0296212809160052 -0.5753166734816464 1.090021414404755 -0.5938500477751028 1.1552215585018828 -0.63118346361804 Z M 2.524557918169568 -1.4239852157683854 L 3.4405599426016034 -1.951719715433888 L 3.4405599426016034 -1.951719715433888 L 5.237897248182947 -2.9886553404714324 L 2.524557918169568 -4.55585880410668 Z M 5.563364634156543 -2.800388257720627 L 5.563364634156543 -2.800388257720627 L 2.5500246411195713 -1.0589177422756757 C 2.591758066686853 -0.9985176087869272 2.6917582876947175 -0.9729175522089131 2.8080252113198605 -0.9682508752285468 C 3.0358923815897803 -0.956650849591635 3.321893013672272 -1.014784311404206 3.531093476020724 -1.065851090932223 L 6.407233165834906 -1.7591859565867471 C 6.549100146038063 -1.7941193671254938 6.647233696253781 -1.8429194749773323 6.704967157182321 -1.8963862598095362 C 6.732747559829563 -1.9213783551376373 6.752860861945205 -1.9537445884271767 6.762967285366883 -1.9897197994168767 C 6.766747550559897 -2.0189384173744527 6.760191373036886 -2.04855913308993 6.7444339110734255 -2.0734533178074583 C 6.718833854495413 -2.1175867486789306 6.672300418319754 -2.1618535131784125 6.607233607850636 -2.1990535953933383 Z M 5.044963488451775 -4.039724330078089 L 3.003492309983232 -6.183462401230676 C 2.9034920889753684 -6.288129299218906 2.8128252219282377 -6.3485294327076565 2.7361583858222085 -6.371729483981481 C 2.702011185270245 -6.384625121392573 2.6646344265735564 -6.386260354585553 2.6294914834138203 -6.376396160961848 L 2.6294914834138203 -6.376396160961848 C 2.601753023136404 -6.365092938820628 2.578768745139023 -6.344557805200017 2.5644246729447033 -6.318262699149276 C 2.5388246163666905 -6.276395939953984 2.5244245845415576 -6.213729134789055 2.5244245845415576 -6.139328970359204 L 2.5244245845415576 -6.139328970359204 L 2.5244245845415576 -4.932526303236301 L 5.540164582882718 -3.1933224594675282 C 5.570431316441098 -3.260789275240834 5.542431254558897 -3.3583894909445093 5.4889644697266915 -3.46305638893274 C 5.386697577042649 -3.663056830948469 5.193763817311478 -3.8839906525618435 5.044963488451775 -4.03972433007809 Z" fill="#ff0000" transform="matrix(1,0,0,1,0,0)" fill-rule="nonzero"></path></g></g><g><path d=" M 0.588 1.146 C 0.624 1.146 0.639 1.131 0.639 1.095 L 0.639 0.7785 C 0.639 0.7619999999999999 0.6255000000000001 0.7499999999999999 0.6135 0.7499999999999999 C 0.5955 0.7499999999999999 0.47850000000000004 0.8294999999999999 0.4545 0.8474999999999999 C 0.4425 0.8564999999999999 0.438 0.8639999999999999 0.438 0.8864999999999998 L 0.438 0.9809999999999999 L 0.315 0.9809999999999999 C 0.3045 0.9809999999999999 0.2955 0.9734999999999999 0.2955 0.9629999999999999 L 0.2955 0.7949999999999999 L 0.468 0.6854999999999999 C 0.4905 0.6719999999999999 0.4965 0.6599999999999999 0.4965 0.6344999999999998 L 0.4965 0.49649999999999994 C 0.4965 0.47999999999999987 0.486 0.46499999999999986 0.468 0.46499999999999986 C 0.456 0.46499999999999986 0.4425 0.47099999999999986 0.429 0.47999999999999987 L 0.2955 0.564 L 0.2955 0.1964999999999999 C 0.2955 0.1874999999999999 0.3045 0.17849999999999988 0.315 0.17849999999999988 L 0.438 0.17849999999999988 L 0.438 0.3434999999999999 C 0.438 0.3599999999999999 0.4515 0.3719999999999999 0.4635 0.3719999999999999 C 0.4815 0.3719999999999999 0.5985 0.29249999999999987 0.6225 0.27449999999999986 C 0.6345000000000001 0.26549999999999985 0.639 0.2579999999999999 0.639 0.23549999999999993 L 0.639 0.06449999999999978 C 0.639 0.02849999999999997 0.624 0.013499999999999845 0.588 0.013499999999999845 L 0.063 0.013499999999999845 C 0.042 0.013499999999999845 0.03 0.025499999999999856 0.03 0.038999999999999924 C 0.03 0.07049999999999979 0.0945 0.10499999999999998 0.0945 0.16499999999999992 L 0.0945 0.9944999999999999 C 0.0945 1.0545 0.03 1.089 0.03 1.1204999999999998 C 0.03 1.134 0.042 1.146 0.063 1.146 M 0.983990478515625 0.1499999999999999 C 0.983990478515625 0.10799999999999987 1.031990478515625 0.07049999999999979 1.031990478515625 0.038999999999999924 C 1.031990478515625 0.025499999999999856 1.019990478515625 0.013499999999999845 0.9989904785156252 0.013499999999999845 L 0.7349904785156252 0.013499999999999845 C 0.7139904785156251 0.013499999999999845 0.7019904785156251 0.025499999999999856 0.7019904785156251 0.038999999999999924 C 0.7019904785156251 0.07049999999999979 0.7604904785156251 0.11249999999999982 0.7739904785156251 0.16649999999999987 L 0.9944904785156251 1.008 C 0.9989904785156252 1.023 1.000490478515625 1.035 1.000490478515625 1.0439999999999998 C 0.9989904785156252 1.0679999999999998 0.9704904785156252 1.0919999999999999 0.9704904785156252 1.1204999999999998 C 0.9704904785156252 1.134 0.9824904785156251 1.146 1.0034904785156251 1.146 L 1.2494904785156251 1.146 C 1.270490478515625 1.146 1.282490478515625 1.134 1.282490478515625 1.1204999999999998 C 1.282490478515625 1.0919999999999999 1.2539904785156253 1.0679999999999998 1.2524904785156252 1.0439999999999998 C 1.2524904785156252 1.035 1.2539904785156253 1.023 1.258490478515625 1.008 L 1.4789904785156252 0.16649999999999987 C 1.492490478515625 0.11249999999999982 1.550990478515625 0.07049999999999979 1.550990478515625 0.038999999999999924 C 1.550990478515625 0.025499999999999856 1.538990478515625 0.013499999999999845 1.517990478515625 0.013499999999999845 L 1.2539904785156253 0.013499999999999845 C 1.2329904785156252 0.013499999999999845 1.2209904785156251 0.025499999999999856 1.2209904785156251 0.038999999999999924 C 1.2209904785156251 0.07049999999999979 1.268990478515625 0.10799999999999987 1.268990478515625 0.1499999999999999 L 1.1264904785156251 0.7409999999999999 M 2.1569882812500003 1.146 C 2.1929882812500003 1.146 2.2079882812500005 1.131 2.2079882812500005 1.095 L 2.2079882812500005 0.7785 C 2.2079882812500005 0.7619999999999999 2.1944882812500004 0.7499999999999999 2.1824882812500004 0.7499999999999999 C 2.16448828125 0.7499999999999999 2.04748828125 0.8294999999999999 2.02348828125 0.8474999999999999 C 2.01148828125 0.8564999999999999 2.0069882812500004 0.8639999999999999 2.0069882812500004 0.8864999999999998 L 2.0069882812500004 0.9809999999999999 L 1.8839882812500002 0.9809999999999999 C 1.8734882812500002 0.9809999999999999 1.8644882812500003 0.9734999999999999 1.8644882812500003 0.9629999999999999 L 1.8644882812500003 0.7949999999999999 L 2.03698828125 0.6854999999999999 C 2.05948828125 0.6719999999999999 2.0654882812500004 0.6599999999999999 2.0654882812500004 0.6344999999999998 L 2.0654882812500004 0.49649999999999994 C 2.0654882812500004 0.47999999999999987 2.05498828125 0.46499999999999986 2.03698828125 0.46499999999999986 C 2.02498828125 0.46499999999999986 2.01148828125 0.47099999999999986 1.9979882812500003 0.47999999999999987 L 1.8644882812500003 0.564 L 1.8644882812500003 0.1964999999999999 C 1.8644882812500003 0.1874999999999999 1.8734882812500002 0.17849999999999988 1.8839882812500002 0.17849999999999988 L 2.0069882812500004 0.17849999999999988 L 2.0069882812500004 0.3434999999999999 C 2.0069882812500004 0.3599999999999999 2.0204882812500005 0.3719999999999999 2.03248828125 0.3719999999999999 C 2.0504882812500003 0.3719999999999999 2.1674882812500003 0.29249999999999987 2.1914882812500003 0.27449999999999986 C 2.2034882812500003 0.26549999999999985 2.2079882812500005 0.2579999999999999 2.2079882812500005 0.23549999999999993 L 2.2079882812500005 0.06449999999999978 C 2.2079882812500005 0.02849999999999997 2.1929882812500003 0.013499999999999845 2.1569882812500003 0.013499999999999845 L 1.6319882812500002 0.013499999999999845 C 1.6109882812500003 0.013499999999999845 1.5989882812500003 0.025499999999999856 1.5989882812500003 0.038999999999999924 C 1.5989882812500003 0.07049999999999979 1.6634882812500003 0.10499999999999998 1.6634882812500003 0.16499999999999992 L 1.6634882812500003 0.9944999999999999 C 1.6634882812500003 1.0545 1.5989882812500003 1.089 1.5989882812500003 1.1204999999999998 C 1.5989882812500003 1.134 1.6109882812500003 1.146 1.6319882812500002 1.146 M 2.5814934082031256 1.146 C 2.6054934082031256 1.146 2.6234934082031254 1.131 2.6234934082031254 1.1084999999999998 C 2.6234934082031254 1.0739999999999998 2.5589934082031256 1.0379999999999998 2.5589934082031256 1.0065 L 2.5589934082031256 0.5129999999999999 L 2.8619934082031255 1.1039999999999999 C 2.875493408203125 1.131 2.8859934082031256 1.146 2.9264934082031253 1.146 L 3.0209934082031253 1.146 C 3.0539934082031253 1.146 3.0749934082031256 1.125 3.0749934082031256 1.0935 L 3.0749934082031256 0.16499999999999992 C 3.0749934082031256 0.10499999999999998 3.1394934082031254 0.07049999999999979 3.1394934082031254 0.038999999999999924 C 3.1394934082031254 0.025499999999999856 3.1274934082031254 0.013499999999999845 3.1064934082031255 0.013499999999999845 L 2.849993408203125 0.013499999999999845 C 2.828993408203125 0.013499999999999845 2.8169934082031256 0.025499999999999856 2.8169934082031256 0.038999999999999924 C 2.8169934082031256 0.07049999999999979 2.8814934082031254 0.10499999999999998 2.8814934082031254 0.16499999999999992 L 2.8814934082031254 0.696 L 2.5799934082031255 0.05999999999999983 C 2.570993408203125 0.038999999999999924 2.560493408203125 0.013499999999999845 2.5139934082031252 0.013499999999999845 L 2.3339934082031255 0.013499999999999845 C 2.312993408203125 0.013499999999999845 2.300993408203125 0.025499999999999856 2.300993408203125 0.038999999999999924 C 2.300993408203125 0.07049999999999979 2.3654934082031254 0.10499999999999998 2.3654934082031254 0.16499999999999992 L 2.3654934082031254 0.9944999999999999 C 2.3654934082031254 1.0545 2.300993408203125 1.089 2.300993408203125 1.1204999999999998 C 2.300993408203125 1.134 2.312993408203125 1.146 2.3339934082031255 1.146 M 3.6089919433593756 0.17849999999999988 C 3.7019919433593755 0.17849999999999988 3.7019919433593755 0.1874999999999999 3.7319919433593753 0.22049999999999992 C 3.7574919433593754 0.25049999999999983 3.7694919433593754 0.26249999999999984 3.7889919433593757 0.26249999999999984 C 3.8129919433593753 0.26249999999999984 3.8294919433593755 0.24599999999999989 3.8294919433593755 0.22199999999999986 L 3.8294919433593755 0.038999999999999924 C 3.8294919433593755 0.014999999999999902 3.8129919433593753 -2.220446049250313e-16 3.7889919433593757 -2.220446049250313e-16 C 3.7799919433593754 -2.220446049250313e-16 3.7649919433593757 0.0014999999999998348 3.7394919433593756 0.0044999999999999485 C 3.7094919433593754 0.008999999999999897 3.6704919433593757 0.013499999999999845 3.6464919433593757 0.013499999999999845 L 3.3704919433593754 0.013499999999999845 C 3.2639919433593754 0.013499999999999845 3.2444919433593755 -2.220446049250313e-16 3.2204919433593755 -2.220446049250313e-16 C 3.1964919433593755 -2.220446049250313e-16 3.1874919433593756 0.010499999999999954 3.1874919433593756 0.034499999999999975 L 3.1874919433593756 0.23099999999999987 C 3.1874919433593756 0.2489999999999999 3.1979919433593755 0.26249999999999984 3.2144919433593753 0.26249999999999984 C 3.2354919433593756 0.26249999999999984 3.2489919433593752 0.24749999999999994 3.2819919433593756 0.21899999999999986 C 3.3149919433593755 0.1904999999999999 3.3239919433593754 0.17849999999999988 3.4079919433593755 0.17849999999999988 L 3.4079919433593755 0.9944999999999999 C 3.4079919433593755 1.0545 3.3434919433593753 1.089 3.3434919433593753 1.1204999999999998 C 3.3434919433593753 1.134 3.3554919433593753 1.146 3.3764919433593756 1.146 L 3.6404919433593754 1.146 C 3.6614919433593753 1.146 3.6734919433593753 1.134 3.6734919433593753 1.1204999999999998 C 3.6734919433593753 1.089 3.6089919433593756 1.0545 3.6089919433593756 0.9944999999999999 M 4.049989013671875 1.146 L 4.345489013671876 1.146 C 4.436989013671876 1.146 4.493989013671875 1.0785 4.493989013671875 1.017 L 4.493989013671875 0.14249999999999985 C 4.493989013671875 0.07649999999999979 4.435489013671876 0.013499999999999845 4.345489013671876 0.013499999999999845 L 4.049989013671875 0.013499999999999845 C 3.970489013671876 0.013499999999999845 3.9074890136718756 0.05549999999999988 3.9074890136718756 0.1349999999999998 L 3.9074890136718756 1.0245 C 3.9074890136718756 1.1024999999999998 3.9689890136718757 1.146 4.049989013671875 1.146 M 4.108489013671876 0.9704999999999999 L 4.108489013671876 0.18899999999999983 C 4.108489013671876 0.18299999999999994 4.112989013671876 0.17849999999999988 4.118989013671875 0.17849999999999988 L 4.282489013671875 0.17849999999999988 C 4.288489013671875 0.17849999999999988 4.292989013671876 0.18299999999999994 4.292989013671876 0.18899999999999983 L 4.292989013671876 0.9704999999999999 C 4.292989013671876 0.9749999999999999 4.288489013671875 0.9809999999999999 4.282489013671875 0.9809999999999999 L 4.118989013671875 0.9809999999999999 C 4.112989013671876 0.9809999999999999 4.108489013671876 0.9749999999999999 4.108489013671876 0.9704999999999999 M 5.01600146484375 0.17849999999999988 C 5.031001464843751 0.17849999999999988 5.037001464843751 0.1844999999999999 5.037001464843751 0.19799999999999984 L 5.037001464843751 0.45299999999999985 C 5.037001464843751 0.4634999999999999 5.034001464843751 0.4754999999999999 5.001001464843751 0.4979999999999999 L 4.85250146484375 0.5999999999999999 L 4.85250146484375 0.17849999999999988 M 5.236501464843751 1.011 C 5.226001464843751 0.9914999999999999 5.1630014648437506 0.8324999999999999 5.101501464843751 0.6555 C 5.170501464843751 0.6119999999999999 5.238001464843751 0.5729999999999998 5.238001464843751 0.5084999999999998 L 5.238001464843751 0.15599999999999992 C 5.238001464843751 0.05699999999999994 5.175001464843751 0.011999999999999789 5.074501464843751 0.011999999999999789 L 4.62000146484375 0.013499999999999845 C 4.5990014648437505 0.013499999999999845 4.587001464843751 0.025499999999999856 4.587001464843751 0.038999999999999924 C 4.587001464843751 0.07049999999999979 4.651501464843751 0.10499999999999998 4.651501464843751 0.16499999999999992 L 4.651501464843751 0.9944999999999999 C 4.651501464843751 1.0545 4.587001464843751 1.089 4.587001464843751 1.1204999999999998 C 4.587001464843751 1.134 4.5990014648437505 1.146 4.62000146484375 1.146 L 4.884001464843751 1.146 C 4.9050014648437505 1.146 4.917001464843751 1.134 4.917001464843751 1.1204999999999998 C 4.917001464843751 1.089 4.85250146484375 1.0545 4.85250146484375 0.9944999999999999 L 4.85250146484375 0.8264999999999999 C 4.85250146484375 0.8174999999999999 4.85400146484375 0.813 4.858501464843751 0.8099999999999998 L 4.914001464843751 0.7754999999999999 C 4.914001464843751 0.7754999999999999 5.01900146484375 1.0439999999999998 5.01900146484375 1.0605 C 5.01900146484375 1.0935 4.984501464843751 1.0979999999999999 4.984501464843751 1.1204999999999998 C 4.984501464843751 1.134 4.9980014648437505 1.146 5.01900146484375 1.146 L 5.2785014648437505 1.146 C 5.29500146484375 1.146 5.310001464843751 1.134 5.310001464843751 1.1204999999999998 C 5.310001464843751 1.0875 5.281501464843751 1.0904999999999998 5.236501464843751 1.011 M 5.6235373535156254 0.16499999999999992 C 5.6235373535156254 0.10499999999999998 5.688037353515626 0.07049999999999979 5.688037353515626 0.038999999999999924 C 5.688037353515626 0.025499999999999856 5.676037353515626 0.013499999999999845 5.655037353515626 0.013499999999999845 L 5.3910373535156255 0.013499999999999845 C 5.370037353515626 0.013499999999999845 5.358037353515626 0.025499999999999856 5.358037353515626 0.038999999999999924 C 5.358037353515626 0.07049999999999979 5.422537353515626 0.10499999999999998 5.422537353515626 0.16499999999999992 L 5.422537353515626 0.9944999999999999 C 5.422537353515626 1.0545 5.358037353515626 1.089 5.358037353515626 1.1204999999999998 C 5.358037353515626 1.134 5.370037353515626 1.146 5.3910373535156255 1.146 L 5.655037353515626 1.146 C 5.676037353515626 1.146 5.688037353515626 1.134 5.688037353515626 1.1204999999999998 C 5.688037353515626 1.089 5.6235373535156254 1.0545 5.6235373535156254 0.9944999999999999 M 6.402052001953126 0.16499999999999992 C 6.402052001953126 0.10499999999999998 6.466552001953126 0.07049999999999979 6.466552001953126 0.038999999999999924 C 6.466552001953126 0.025499999999999856 6.454552001953126 0.013499999999999845 6.433552001953126 0.013499999999999845 L 6.169552001953126 0.013499999999999845 C 6.148552001953126 0.013499999999999845 6.136552001953126 0.025499999999999856 6.136552001953126 0.038999999999999924 C 6.136552001953126 0.07049999999999979 6.201052001953126 0.10499999999999998 6.201052001953126 0.16499999999999992 L 6.201052001953126 0.9704999999999999 C 6.201052001953126 0.9764999999999999 6.196552001953126 0.9809999999999999 6.190552001953126 0.9809999999999999 L 6.027052001953126 0.9809999999999999 C 6.021052001953126 0.9809999999999999 6.016552001953126 0.9764999999999999 6.016552001953126 0.9704999999999999 L 6.016552001953126 0.16499999999999992 C 6.016552001953126 0.10499999999999998 6.081052001953126 0.07049999999999979 6.081052001953126 0.038999999999999924 C 6.081052001953126 0.025499999999999856 6.069052001953126 0.013499999999999845 6.048052001953126 0.013499999999999845 L 5.784052001953126 0.013499999999999845 C 5.763052001953126 0.013499999999999845 5.751052001953126 0.025499999999999856 5.751052001953126 0.038999999999999924 C 5.751052001953126 0.07049999999999979 5.815552001953126 0.10499999999999998 5.815552001953126 0.16499999999999992 L 5.815552001953126 1.0305 C 5.815552001953126 1.1084999999999998 5.880052001953126 1.146 5.958052001953126 1.146 L 6.253552001953126 1.146 C 6.345052001953126 1.146 6.402052001953126 1.083 6.402052001953126 1.023 M 7.312595214843751 0.9944999999999999 C 7.312595214843751 1.0545 7.248095214843751 1.089 7.248095214843751 1.1204999999999998 C 7.248095214843751 1.134 7.260095214843751 1.146 7.281095214843751 1.146 L 7.537595214843751 1.146 C 7.558595214843751 1.146 7.570595214843751 1.134 7.570595214843751 1.1204999999999998 C 7.570595214843751 1.089 7.506095214843751 1.0545 7.506095214843751 0.9944999999999999 L 7.506095214843751 0.16199999999999992 C 7.506095214843751 0.10199999999999987 7.570595214843751 0.0674999999999999 7.570595214843751 0.03599999999999981 C 7.570595214843751 0.022499999999999964 7.558595214843751 0.010499999999999954 7.537595214843751 0.010499999999999954 L 7.344095214843751 0.010499999999999954 C 7.294595214843751 0.010499999999999954 7.276595214843751 0.04799999999999982 7.269095214843751 0.07049999999999979 L 7.050095214843751 0.726 L 6.823595214843751 0.05249999999999999 C 6.816095214843751 0.029999999999999805 6.805595214843751 0.010499999999999954 6.757595214843751 0.010499999999999954 L 6.562595214843751 0.010499999999999954 C 6.541595214843751 0.010499999999999954 6.529595214843751 0.022499999999999964 6.529595214843751 0.03599999999999981 C 6.529595214843751 0.0674999999999999 6.594095214843751 0.10199999999999987 6.594095214843751 0.16199999999999992 L 6.594095214843751 0.9944999999999999 C 6.594095214843751 1.0545 6.529595214843751 1.089 6.529595214843751 1.1204999999999998 C 6.529595214843751 1.134 6.541595214843751 1.146 6.562595214843751 1.146 L 6.819095214843751 1.146 C 6.8400952148437515 1.146 6.852095214843751 1.134 6.852095214843751 1.1204999999999998 C 6.852095214843751 1.089 6.787595214843751 1.0545 6.787595214843751 0.9944999999999999 L 6.787595214843751 0.5624999999999999 L 6.940595214843751 1.008 C 6.945095214843751 1.023 6.946595214843751 1.035 6.946595214843751 1.0439999999999998 C 6.945095214843751 1.0679999999999998 6.916595214843751 1.0919999999999999 6.916595214843751 1.1204999999999998 C 6.916595214843751 1.134 6.928595214843751 1.146 6.949595214843751 1.146 L 7.149095214843751 1.146 C 7.170095214843751 1.146 7.182095214843751 1.134 7.182095214843751 1.1204999999999998 C 7.182095214843751 1.0919999999999999 7.152095214843751 1.0679999999999998 7.152095214843751 1.0439999999999998 C 7.152095214843751 1.035 7.153595214843751 1.023 7.158095214843751 1.008 L 7.312595214843751 0.5609999999999999" fill="#ff0000" fill-rule="nonzero"></path></g><g></g></g><defs><clipPath id="SvgjsClipPath59490"><path d=" M 0.5091442205866343 -6.7106911234614195 h 6.58231995726423 v 6.4606911234614195 h -6.58231995726423 Z"></path></clipPath><clipPath id="SvgjsClipPath59485ffa56788-8fa9-4f3c-a819-9c9c9872862c"><path d=" M 0.5091442205866343 -6.7106911234614195 L 7.091464177850864 -6.7106911234614195 L 7.091464177850864 -0.25 L 0.5091442205866343 -0.25 Z"></path></clipPath></defs></svg>