<svg xmlns="http://www.w3.org/2000/svg" version="1.1" xmlns:xlink="http://www.w3.org/1999/xlink" xmlns:svgjs="http://svgjs.dev/svgjs" viewBox="0 0 8.720486718749997 8.72048671875"><g transform="matrix(0.8571428571428572,0,0,0.8571428571428572,2.188640959821428,4.032814787946428)"><rect width="10.173901171874999" height="10.173901171874999" x="-2.5534144531250003" y="-4.704950585937499" fill="#000000"></rect><g transform="matrix(1,0,0,1,0,0)"><g clip-path="url(#SvgjsClipPath44101)"><path d=" M -1.0515528515625006 -3.203088984375 L 6.215519414062499 -3.203088984375 L 6.215519414062499 4.06398328125 L -1.0515528515625006 4.06398328125 Z" fill="#000000" transform="matrix(1,0,0,1,0,0)" fill-rule="nonzero"></path></g></g><g transform="matrix(1,0,0,1,0,0)"><path d=" M 0.392 0.764 C 0.41600000000000004 0.764 0.426 0.754 0.426 0.73 L 0.426 0.519 C 0.426 0.508 0.417 0.5 0.40900000000000003 0.5 C 0.397 0.5 0.319 0.553 0.303 0.565 C 0.295 0.571 0.292 0.5760000000000001 0.292 0.591 L 0.292 0.654 L 0.21 0.654 C 0.203 0.654 0.197 0.649 0.197 0.642 L 0.197 0.53 L 0.312 0.457 C 0.327 0.448 0.331 0.44 0.331 0.423 L 0.331 0.331 C 0.331 0.32 0.324 0.31 0.312 0.31 C 0.304 0.31 0.295 0.314 0.28600000000000003 0.32 L 0.197 0.376 L 0.197 0.131 C 0.197 0.125 0.203 0.119 0.21 0.119 L 0.292 0.119 L 0.292 0.22899999999999998 C 0.292 0.24 0.301 0.248 0.309 0.248 C 0.321 0.248 0.399 0.19499999999999995 0.41500000000000004 0.18300000000000005 C 0.423 0.17700000000000005 0.426 0.17200000000000004 0.426 0.15700000000000003 L 0.426 0.04300000000000004 C 0.426 0.019000000000000017 0.41600000000000004 0.009000000000000008 0.392 0.009000000000000008 L 0.042 0.009000000000000008 C 0.028 0.009000000000000008 0.02 0.017000000000000015 0.02 0.026000000000000023 C 0.02 0.04700000000000004 0.063 0.06999999999999995 0.063 0.10999999999999999 L 0.063 0.663 C 0.063 0.7030000000000001 0.02 0.726 0.02 0.747 C 0.02 0.756 0.028 0.764 0.042 0.764 M 0.6559936523437501 0.09999999999999998 C 0.6559936523437501 0.07199999999999995 0.6879936523437501 0.04700000000000004 0.6879936523437501 0.026000000000000023 C 0.6879936523437501 0.017000000000000015 0.6799936523437501 0.009000000000000008 0.6659936523437501 0.009000000000000008 L 0.48999365234375003 0.009000000000000008 C 0.4759936523437501 0.009000000000000008 0.46799365234375007 0.017000000000000015 0.46799365234375007 0.026000000000000023 C 0.46799365234375007 0.04700000000000004 0.50699365234375 0.07499999999999996 0.51599365234375 0.11099999999999999 L 0.6629936523437501 0.672 C 0.6659936523437501 0.682 0.6669936523437501 0.6900000000000001 0.6669936523437501 0.696 C 0.6659936523437501 0.712 0.6469936523437501 0.728 0.6469936523437501 0.747 C 0.6469936523437501 0.756 0.6549936523437501 0.764 0.6689936523437501 0.764 L 0.83299365234375 0.764 C 0.84699365234375 0.764 0.85499365234375 0.756 0.85499365234375 0.747 C 0.85499365234375 0.728 0.8359936523437501 0.712 0.83499365234375 0.696 C 0.83499365234375 0.6900000000000001 0.8359936523437501 0.682 0.83899365234375 0.672 L 0.98599365234375 0.11099999999999999 C 0.9949936523437501 0.07499999999999996 1.03399365234375 0.04700000000000004 1.03399365234375 0.026000000000000023 C 1.03399365234375 0.017000000000000015 1.02599365234375 0.009000000000000008 1.01199365234375 0.009000000000000008 L 0.8359936523437501 0.009000000000000008 C 0.8219936523437501 0.009000000000000008 0.8139936523437501 0.017000000000000015 0.8139936523437501 0.026000000000000023 C 0.8139936523437501 0.04700000000000004 0.8459936523437501 0.07199999999999995 0.8459936523437501 0.09999999999999998 L 0.75099365234375 0.494 M 1.4379921875 0.764 C 1.4619921875 0.764 1.4719921875 0.754 1.4719921875 0.73 L 1.4719921875 0.519 C 1.4719921875 0.508 1.4629921875 0.5 1.4549921875 0.5 C 1.4429921875 0.5 1.3649921875 0.553 1.3489921875 0.565 C 1.3409921875 0.571 1.3379921875 0.5760000000000001 1.3379921875 0.591 L 1.3379921875 0.654 L 1.2559921875 0.654 C 1.2489921875 0.654 1.2429921875 0.649 1.2429921875 0.642 L 1.2429921875 0.53 L 1.3579921875 0.457 C 1.3729921875 0.448 1.3769921875 0.44 1.3769921875 0.423 L 1.3769921875 0.331 C 1.3769921875 0.32 1.3699921875 0.31 1.3579921875 0.31 C 1.3499921875 0.31 1.3409921875 0.314 1.3319921875 0.32 L 1.2429921875 0.376 L 1.2429921875 0.131 C 1.2429921875 0.125 1.2489921875 0.119 1.2559921875 0.119 L 1.3379921875 0.119 L 1.3379921875 0.22899999999999998 C 1.3379921875 0.24 1.3469921875 0.248 1.3549921875 0.248 C 1.3669921875 0.248 1.4449921875 0.19499999999999995 1.4609921875 0.18300000000000005 C 1.4689921875 0.17700000000000005 1.4719921875 0.17200000000000004 1.4719921875 0.15700000000000003 L 1.4719921875 0.04300000000000004 C 1.4719921875 0.019000000000000017 1.4619921875 0.009000000000000008 1.4379921875 0.009000000000000008 L 1.0879921875 0.009000000000000008 C 1.0739921875 0.009000000000000008 1.0659921875 0.017000000000000015 1.0659921875 0.026000000000000023 C 1.0659921875 0.04700000000000004 1.1089921875 0.06999999999999995 1.1089921875 0.10999999999999999 L 1.1089921875 0.663 C 1.1089921875 0.7030000000000001 1.0659921875 0.726 1.0659921875 0.747 C 1.0659921875 0.756 1.0739921875 0.764 1.0879921875 0.764 M 1.72099560546875 0.764 C 1.73699560546875 0.764 1.74899560546875 0.754 1.74899560546875 0.739 C 1.74899560546875 0.716 1.70599560546875 0.692 1.70599560546875 0.671 L 1.70599560546875 0.342 L 1.90799560546875 0.736 C 1.91699560546875 0.754 1.92399560546875 0.764 1.95099560546875 0.764 L 2.0139956054687502 0.764 C 2.03599560546875 0.764 2.04999560546875 0.75 2.04999560546875 0.729 L 2.04999560546875 0.10999999999999999 C 2.04999560546875 0.06999999999999995 2.09299560546875 0.04700000000000004 2.09299560546875 0.026000000000000023 C 2.09299560546875 0.017000000000000015 2.08499560546875 0.009000000000000008 2.07099560546875 0.009000000000000008 L 1.89999560546875 0.009000000000000008 C 1.8859956054687501 0.009000000000000008 1.87799560546875 0.017000000000000015 1.87799560546875 0.026000000000000023 C 1.87799560546875 0.04700000000000004 1.92099560546875 0.06999999999999995 1.92099560546875 0.10999999999999999 L 1.92099560546875 0.464 L 1.71999560546875 0.040000000000000036 C 1.71399560546875 0.026000000000000023 1.70699560546875 0.009000000000000008 1.67599560546875 0.009000000000000008 L 1.55599560546875 0.009000000000000008 C 1.54199560546875 0.009000000000000008 1.53399560546875 0.017000000000000015 1.53399560546875 0.026000000000000023 C 1.53399560546875 0.04700000000000004 1.57699560546875 0.06999999999999995 1.57699560546875 0.10999999999999999 L 1.57699560546875 0.663 C 1.57699560546875 0.7030000000000001 1.53399560546875 0.726 1.53399560546875 0.747 C 1.53399560546875 0.756 1.54199560546875 0.764 1.55599560546875 0.764 M 2.40599462890625 0.119 C 2.4679946289062498 0.119 2.4679946289062498 0.125 2.4879946289062502 0.14700000000000002 C 2.50499462890625 0.16700000000000004 2.51299462890625 0.17500000000000004 2.52599462890625 0.17500000000000004 C 2.54199462890625 0.17500000000000004 2.55299462890625 0.16400000000000003 2.55299462890625 0.14800000000000002 L 2.55299462890625 0.026000000000000023 C 2.55299462890625 0.010000000000000009 2.54199462890625 0 2.52599462890625 0 C 2.5199946289062503 0 2.50999462890625 0.0010000000000000009 2.49299462890625 0.0030000000000000027 C 2.47299462890625 0.006000000000000005 2.44699462890625 0.009000000000000008 2.43099462890625 0.009000000000000008 L 2.24699462890625 0.009000000000000008 C 2.17599462890625 0.009000000000000008 2.16299462890625 0 2.14699462890625 0 C 2.13099462890625 0 2.12499462890625 0.007000000000000006 2.12499462890625 0.02300000000000002 L 2.12499462890625 0.15400000000000003 C 2.12499462890625 0.16600000000000004 2.13199462890625 0.17500000000000004 2.14299462890625 0.17500000000000004 C 2.15699462890625 0.17500000000000004 2.16599462890625 0.16500000000000004 2.18799462890625 0.14600000000000002 C 2.20999462890625 0.127 2.21599462890625 0.119 2.27199462890625 0.119 L 2.27199462890625 0.663 C 2.27199462890625 0.7030000000000001 2.22899462890625 0.726 2.22899462890625 0.747 C 2.22899462890625 0.756 2.23699462890625 0.764 2.25099462890625 0.764 L 2.42699462890625 0.764 C 2.44099462890625 0.764 2.44899462890625 0.756 2.44899462890625 0.747 C 2.44899462890625 0.726 2.40599462890625 0.7030000000000001 2.40599462890625 0.663 M 2.6999926757812496 0.764 L 2.8969926757812496 0.764 C 2.9579926757812496 0.764 2.99599267578125 0.719 2.99599267578125 0.678 L 2.99599267578125 0.09499999999999997 C 2.99599267578125 0.051000000000000045 2.9569926757812497 0.009000000000000008 2.8969926757812496 0.009000000000000008 L 2.6999926757812496 0.009000000000000008 C 2.6469926757812496 0.009000000000000008 2.60499267578125 0.03700000000000003 2.60499267578125 0.08999999999999997 L 2.60499267578125 0.683 C 2.60499267578125 0.735 2.6459926757812497 0.764 2.6999926757812496 0.764 M 2.7389926757812497 0.647 L 2.7389926757812497 0.126 C 2.7389926757812497 0.122 2.74199267578125 0.119 2.74599267578125 0.119 L 2.85499267578125 0.119 C 2.85899267578125 0.119 2.86199267578125 0.122 2.86199267578125 0.126 L 2.86199267578125 0.647 C 2.86199267578125 0.65 2.85899267578125 0.654 2.85499267578125 0.654 L 2.74599267578125 0.654 C 2.74199267578125 0.654 2.7389926757812497 0.65 2.7389926757812497 0.647 M 3.3440009765624996 0.119 C 3.3540009765624994 0.119 3.3580009765624994 0.123 3.3580009765624994 0.132 L 3.3580009765624994 0.302 C 3.3580009765624994 0.309 3.3560009765624996 0.317 3.3340009765624994 0.332 L 3.2350009765624996 0.4 L 3.2350009765624996 0.119 M 3.4910009765624994 0.674 C 3.4840009765624997 0.661 3.4420009765624995 0.555 3.4010009765624996 0.437 C 3.4470009765624994 0.40800000000000003 3.4920009765624997 0.382 3.4920009765624997 0.339 L 3.4920009765624997 0.10399999999999998 C 3.4920009765624997 0.038000000000000034 3.4500009765624995 0.008000000000000007 3.3830009765624998 0.008000000000000007 L 3.0800009765624994 0.009000000000000008 C 3.0660009765624996 0.009000000000000008 3.0580009765624996 0.017000000000000015 3.0580009765624996 0.026000000000000023 C 3.0580009765624996 0.04700000000000004 3.1010009765624997 0.06999999999999995 3.1010009765624997 0.10999999999999999 L 3.1010009765624997 0.663 C 3.1010009765624997 0.7030000000000001 3.0580009765624996 0.726 3.0580009765624996 0.747 C 3.0580009765624996 0.756 3.0660009765624996 0.764 3.0800009765624994 0.764 L 3.2560009765624995 0.764 C 3.2700009765624998 0.764 3.2780009765625 0.756 3.2780009765625 0.747 C 3.2780009765625 0.726 3.2350009765624996 0.7030000000000001 3.2350009765624996 0.663 L 3.2350009765624996 0.551 C 3.2350009765624996 0.545 3.2360009765624995 0.542 3.2390009765624996 0.54 L 3.2760009765624996 0.517 C 3.2760009765624996 0.517 3.3460009765624994 0.696 3.3460009765624994 0.707 C 3.3460009765624994 0.729 3.3230009765624997 0.732 3.3230009765624997 0.747 C 3.3230009765624997 0.756 3.3320009765624996 0.764 3.3460009765624994 0.764 L 3.5190009765624994 0.764 C 3.5300009765624996 0.764 3.5400009765624993 0.756 3.5400009765624993 0.747 C 3.5400009765624993 0.725 3.5210009765624997 0.727 3.4910009765624994 0.674 M 3.7490249023437494 0.10999999999999999 C 3.7490249023437494 0.06999999999999995 3.7920249023437496 0.04700000000000004 3.7920249023437496 0.026000000000000023 C 3.7920249023437496 0.017000000000000015 3.7840249023437496 0.009000000000000008 3.7700249023437493 0.009000000000000008 L 3.594024902343749 0.009000000000000008 C 3.5800249023437494 0.009000000000000008 3.5720249023437494 0.017000000000000015 3.5720249023437494 0.026000000000000023 C 3.5720249023437494 0.04700000000000004 3.6150249023437495 0.06999999999999995 3.6150249023437495 0.10999999999999999 L 3.6150249023437495 0.663 C 3.6150249023437495 0.7030000000000001 3.5720249023437494 0.726 3.5720249023437494 0.747 C 3.5720249023437494 0.756 3.5800249023437494 0.764 3.594024902343749 0.764 L 3.7700249023437493 0.764 C 3.7840249023437496 0.764 3.7920249023437496 0.756 3.7920249023437496 0.747 C 3.7920249023437496 0.726 3.7490249023437494 0.7030000000000001 3.7490249023437494 0.663 M 4.268034667968749 0.10999999999999999 C 4.268034667968749 0.06999999999999995 4.311034667968749 0.04700000000000004 4.311034667968749 0.026000000000000023 C 4.311034667968749 0.017000000000000015 4.303034667968749 0.009000000000000008 4.289034667968749 0.009000000000000008 L 4.1130346679687495 0.009000000000000008 C 4.099034667968749 0.009000000000000008 4.091034667968749 0.017000000000000015 4.091034667968749 0.026000000000000023 C 4.091034667968749 0.04700000000000004 4.134034667968749 0.06999999999999995 4.134034667968749 0.10999999999999999 L 4.134034667968749 0.647 C 4.134034667968749 0.651 4.131034667968749 0.654 4.127034667968749 0.654 L 4.018034667968749 0.654 C 4.014034667968749 0.654 4.011034667968749 0.651 4.011034667968749 0.647 L 4.011034667968749 0.10999999999999999 C 4.011034667968749 0.06999999999999995 4.054034667968749 0.04700000000000004 4.054034667968749 0.026000000000000023 C 4.054034667968749 0.017000000000000015 4.046034667968749 0.009000000000000008 4.032034667968749 0.009000000000000008 L 3.856034667968749 0.009000000000000008 C 3.842034667968749 0.009000000000000008 3.834034667968749 0.017000000000000015 3.834034667968749 0.026000000000000023 C 3.834034667968749 0.04700000000000004 3.8770346679687493 0.06999999999999995 3.8770346679687493 0.10999999999999999 L 3.8770346679687493 0.687 C 3.8770346679687493 0.739 3.920034667968749 0.764 3.972034667968749 0.764 L 4.169034667968749 0.764 C 4.2300346679687495 0.764 4.268034667968749 0.722 4.268034667968749 0.682 M 4.875063476562499 0.663 C 4.875063476562499 0.7030000000000001 4.832063476562499 0.726 4.832063476562499 0.747 C 4.832063476562499 0.756 4.840063476562499 0.764 4.854063476562499 0.764 L 5.025063476562499 0.764 C 5.039063476562498 0.764 5.047063476562499 0.756 5.047063476562499 0.747 C 5.047063476562499 0.726 5.004063476562499 0.7030000000000001 5.004063476562499 0.663 L 5.004063476562499 0.10799999999999998 C 5.004063476562499 0.06799999999999995 5.047063476562499 0.04500000000000004 5.047063476562499 0.02400000000000002 C 5.047063476562499 0.015000000000000013 5.039063476562498 0.007000000000000006 5.025063476562499 0.007000000000000006 L 4.896063476562499 0.007000000000000006 C 4.863063476562499 0.007000000000000006 4.851063476562499 0.03200000000000003 4.846063476562499 0.04700000000000004 L 4.700063476562499 0.484 L 4.549063476562499 0.03500000000000003 C 4.544063476562499 0.020000000000000018 4.537063476562499 0.007000000000000006 4.505063476562499 0.007000000000000006 L 4.375063476562499 0.007000000000000006 C 4.3610634765624985 0.007000000000000006 4.3530634765624985 0.015000000000000013 4.3530634765624985 0.02400000000000002 C 4.3530634765624985 0.04500000000000004 4.396063476562499 0.06799999999999995 4.396063476562499 0.10799999999999998 L 4.396063476562499 0.663 C 4.396063476562499 0.7030000000000001 4.3530634765624985 0.726 4.3530634765624985 0.747 C 4.3530634765624985 0.756 4.3610634765624985 0.764 4.375063476562499 0.764 L 4.546063476562499 0.764 C 4.560063476562499 0.764 4.568063476562499 0.756 4.568063476562499 0.747 C 4.568063476562499 0.726 4.525063476562499 0.7030000000000001 4.525063476562499 0.663 L 4.525063476562499 0.375 L 4.6270634765624985 0.672 C 4.630063476562499 0.682 4.631063476562499 0.6900000000000001 4.631063476562499 0.696 C 4.630063476562499 0.712 4.611063476562499 0.728 4.611063476562499 0.747 C 4.611063476562499 0.756 4.6190634765624985 0.764 4.633063476562499 0.764 L 4.766063476562499 0.764 C 4.780063476562499 0.764 4.788063476562499 0.756 4.788063476562499 0.747 C 4.788063476562499 0.728 4.7680634765624985 0.712 4.7680634765624985 0.696 C 4.7680634765624985 0.6900000000000001 4.769063476562499 0.682 4.772063476562499 0.672 L 4.875063476562499 0.374" fill="#ff0000" fill-rule="nonzero"></path></g><g transform="matrix(1,0,0,1,0,0)"></g></g><defs><clipPath id="SvgjsClipPath44101"><path d=" M -1.1000000000000005 -3.2515361328125 h 7.267072265625 v 7.267072265625 h -7.267072265625 Z"></path></clipPath></defs></svg>